<svg width="121" height="37" viewBox="0 0 121 37" fill="none" xmlns="http://www.w3.org/2000/svg">
<path d="M10.4766 5.20312C13.1458 5.20312 15.2747 6.12109 16.8633 7.95703C18.4518 9.79297 19.2461 12.5534 19.2461 16.2383C19.2461 18.6732 18.8815 20.7174 18.1523 22.3711C17.4232 24.0247 16.3945 25.2747 15.0664 26.1211C13.7513 26.9674 12.1953 27.3906 10.3984 27.3906C9.26562 27.3906 8.26953 27.2409 7.41016 26.9414C6.55078 26.6419 5.8151 26.2383 5.20312 25.7305C4.59115 25.2227 4.08333 24.6693 3.67969 24.0703H3.44531C3.48438 24.5781 3.52995 25.1901 3.58203 25.9062C3.64714 26.6224 3.67969 27.2474 3.67969 27.7812V36.5703H0.417969V5.59375H3.09375L3.52344 8.75781H3.67969C4.09635 8.10677 4.60417 7.51432 5.20312 6.98047C5.80208 6.43359 6.53125 6.00391 7.39062 5.69141C8.26302 5.36589 9.29167 5.20312 10.4766 5.20312ZM9.91016 7.9375C8.42578 7.9375 7.22786 8.22396 6.31641 8.79688C5.41797 9.36979 4.76042 10.2292 4.34375 11.375C3.92708 12.5078 3.70573 13.9336 3.67969 15.6523V16.2773C3.67969 18.0872 3.875 19.6172 4.26562 20.8672C4.66927 22.1172 5.32682 23.0677 6.23828 23.7188C7.16276 24.3698 8.39974 24.6953 9.94922 24.6953C11.2773 24.6953 12.3841 24.3372 13.2695 23.6211C14.1549 22.9049 14.8125 21.9089 15.2422 20.6328C15.6849 19.3438 15.9062 17.8659 15.9062 16.1992C15.9062 13.6732 15.4115 11.668 14.4219 10.1836C13.4453 8.6862 11.9414 7.9375 9.91016 7.9375ZM34.6367 5.20312C35.0664 5.20312 35.5156 5.22917 35.9844 5.28125C36.4531 5.32031 36.8698 5.37891 37.2344 5.45703L36.8242 8.46484C36.4727 8.3737 36.082 8.30208 35.6523 8.25C35.2227 8.19792 34.819 8.17188 34.4414 8.17188C33.582 8.17188 32.7682 8.34766 32 8.69922C31.2448 9.03776 30.5807 9.53255 30.0078 10.1836C29.4349 10.8216 28.9857 11.5964 28.6602 12.5078C28.3346 13.4062 28.1719 14.4089 28.1719 15.5156V27H24.9102V5.59375H27.6055L27.957 9.53906H28.0938C28.5365 8.74479 29.0703 8.02214 29.6953 7.37109C30.3203 6.70703 31.043 6.17969 31.8633 5.78906C32.6966 5.39844 33.6211 5.20312 34.6367 5.20312ZM59.7344 16.2578C59.7344 18.0156 59.5065 19.5846 59.0508 20.9648C58.5951 22.3451 57.9375 23.5104 57.0781 24.4609C56.2188 25.4115 55.1771 26.1406 53.9531 26.6484C52.7422 27.1432 51.3685 27.3906 49.832 27.3906C48.3997 27.3906 47.0846 27.1432 45.8867 26.6484C44.7018 26.1406 43.6732 25.4115 42.8008 24.4609C41.9414 23.5104 41.2708 22.3451 40.7891 20.9648C40.3203 19.5846 40.0859 18.0156 40.0859 16.2578C40.0859 13.9141 40.4831 11.9219 41.2773 10.2812C42.0716 8.6276 43.2044 7.37109 44.6758 6.51172C46.1602 5.63932 47.9245 5.20312 49.9688 5.20312C51.9219 5.20312 53.6276 5.63932 55.0859 6.51172C56.5573 7.38411 57.6966 8.64714 58.5039 10.3008C59.3242 11.9414 59.7344 13.9271 59.7344 16.2578ZM43.4453 16.2578C43.4453 17.9766 43.6732 19.4674 44.1289 20.7305C44.5846 21.9935 45.2878 22.9701 46.2383 23.6602C47.1888 24.3503 48.4128 24.6953 49.9102 24.6953C51.3945 24.6953 52.612 24.3503 53.5625 23.6602C54.526 22.9701 55.2357 21.9935 55.6914 20.7305C56.1471 19.4674 56.375 17.9766 56.375 16.2578C56.375 14.5521 56.1471 13.0807 55.6914 11.8438C55.2357 10.5938 54.5326 9.63021 53.582 8.95312C52.6315 8.27604 51.401 7.9375 49.8906 7.9375C47.6641 7.9375 46.0299 8.67318 44.9883 10.1445C43.9596 11.6159 43.4453 13.6536 43.4453 16.2578ZM75.3984 5.20312C78.0677 5.20312 80.1966 6.12109 81.7852 7.95703C83.3737 9.79297 84.168 12.5534 84.168 16.2383C84.168 18.6732 83.8034 20.7174 83.0742 22.3711C82.3451 24.0247 81.3164 25.2747 79.9883 26.1211C78.6732 26.9674 77.1172 27.3906 75.3203 27.3906C74.1875 27.3906 73.1914 27.2409 72.332 26.9414C71.4727 26.6419 70.737 26.2383 70.125 25.7305C69.513 25.2227 69.0052 24.6693 68.6016 24.0703H68.3672C68.4062 24.5781 68.4518 25.1901 68.5039 25.9062C68.569 26.6224 68.6016 27.2474 68.6016 27.7812V36.5703H65.3398V5.59375H68.0156L68.4453 8.75781H68.6016C69.0182 8.10677 69.526 7.51432 70.125 6.98047C70.724 6.43359 71.4531 6.00391 72.3125 5.69141C73.1849 5.36589 74.2135 5.20312 75.3984 5.20312ZM74.832 7.9375C73.3477 7.9375 72.1497 8.22396 71.2383 8.79688C70.3398 9.36979 69.6823 10.2292 69.2656 11.375C68.849 12.5078 68.6276 13.9336 68.6016 15.6523V16.2773C68.6016 18.0872 68.7969 19.6172 69.1875 20.8672C69.5911 22.1172 70.2487 23.0677 71.1602 23.7188C72.0846 24.3698 73.3216 24.6953 74.8711 24.6953C76.1992 24.6953 77.306 24.3372 78.1914 23.6211C79.0768 22.9049 79.7344 21.9089 80.1641 20.6328C80.6068 19.3438 80.8281 17.8659 80.8281 16.1992C80.8281 13.6732 80.3333 11.668 79.3438 10.1836C78.3672 8.6862 76.8633 7.9375 74.832 7.9375ZM96.7461 24.7344C97.2799 24.7344 97.8268 24.6888 98.3867 24.5977C98.9466 24.5065 99.4023 24.3958 99.7539 24.2656V26.7852C99.3763 26.9544 98.849 27.0977 98.1719 27.2148C97.5078 27.332 96.8568 27.3906 96.2188 27.3906C95.0859 27.3906 94.0573 27.1953 93.1328 26.8047C92.2083 26.401 91.4661 25.724 90.9062 24.7734C90.3594 23.8229 90.0859 22.5078 90.0859 20.8281V8.13281H87.0391V6.55078L90.1055 5.28125L91.3945 0.632812H93.3477V5.59375H99.6172V8.13281H93.3477V20.7305C93.3477 22.0716 93.6536 23.0742 94.2656 23.7383C94.8906 24.4023 95.7174 24.7344 96.7461 24.7344ZM100.711 5.59375H104.188L108.914 18.0156C109.188 18.7448 109.441 19.4479 109.676 20.125C109.91 20.7891 110.118 21.4271 110.301 22.0391C110.483 22.651 110.626 23.2435 110.73 23.8164H110.867C111.049 23.1654 111.31 22.3125 111.648 21.2578C111.987 20.1901 112.352 19.1029 112.742 17.9961L117.215 5.59375H120.711L111.395 30.1445C110.9 31.4596 110.32 32.6055 109.656 33.582C109.005 34.5586 108.211 35.3073 107.273 35.8281C106.336 36.362 105.203 36.6289 103.875 36.6289C103.263 36.6289 102.723 36.5898 102.254 36.5117C101.785 36.4466 101.382 36.3685 101.043 36.2773V33.6797C101.329 33.7448 101.674 33.8034 102.078 33.8555C102.495 33.9076 102.924 33.9336 103.367 33.9336C104.174 33.9336 104.871 33.7773 105.457 33.4648C106.056 33.1654 106.57 32.7227 107 32.1367C107.43 31.5508 107.801 30.8542 108.113 30.0469L109.285 27.0391L100.711 5.59375Z" fill="black"/>
</svg>
